<mxfile host="Electron" modified="2023-04-25T11:16:39.237Z" agent="Mozilla/5.0 (Windows NT 10.0; Win64; x64) AppleWebKit/537.36 (KHTML, like Gecko) draw.io/21.2.1 Chrome/112.0.5615.87 Electron/24.1.2 Safari/537.36" etag="NNkNoDuSt-1le2e_tkvW" version="21.2.1" type="device">
  <diagram id="asrPZMm98rYkqawTgu1p" name="Page-1">
    <mxGraphModel dx="1418" dy="868" grid="1" gridSize="10" guides="1" tooltips="1" connect="1" arrows="1" fold="1" page="1" pageScale="1" pageWidth="1480" pageHeight="840" background="none" math="0" shadow="0">
      <root>
        <mxCell id="0" />
        <mxCell id="1" parent="0" />
        <mxCell id="ZRe5EipwopZjVvHXA0qT-22" value="Brother" style="endArrow=open;startArrow=open;html=1;shadow=0;strokeColor=#7E7E7E;strokeWidth=1;fontFamily=CMU Sans Serif;fontSize=24;fontColor=#4b4b4b;entryX=0;entryY=0.75;entryDx=0;entryDy=0;exitX=1;exitY=0.75;exitDx=0;exitDy=0;startFill=0;endFill=0;edgeStyle=orthogonalEdgeStyle;spacingLeft=0;spacingBottom=0;spacingRight=0;verticalAlign=middle;" parent="1" source="ZRe5EipwopZjVvHXA0qT-9" target="ZRe5EipwopZjVvHXA0qT-1" edge="1">
          <mxGeometry width="50" height="50" relative="1" as="geometry">
            <mxPoint x="670" y="230" as="sourcePoint" />
            <mxPoint x="720" y="180" as="targetPoint" />
          </mxGeometry>
        </mxCell>
        <mxCell id="ZRe5EipwopZjVvHXA0qT-12" value="&lt;b style=&quot;font-size: 24px&quot;&gt;Trinculo&lt;/b&gt;" style="whiteSpace=wrap;html=1;fontFamily=CMU Sans Serif;fontColor=#4b4b4b;strokeColor=#7e7e7e;rounded=1;verticalAlign=middle;fontSize=24;" parent="1" vertex="1">
          <mxGeometry x="20" y="20" width="240" height="160" as="geometry" />
        </mxCell>
        <mxCell id="ZRe5EipwopZjVvHXA0qT-31" value="&lt;b style=&quot;font-size: 24px&quot;&gt;Ariel&lt;/b&gt;&lt;br style=&quot;font-size: 24px&quot;&gt;Spirit" style="whiteSpace=wrap;html=1;fontFamily=CMU Sans Serif;strokeColor=#7e7e7e;fontColor=#4b4b4b;fontSize=24;rounded=1;verticalAlign=middle;" parent="1" vertex="1">
          <mxGeometry x="820" y="20" width="240" height="160" as="geometry" />
        </mxCell>
        <mxCell id="ZRe5EipwopZjVvHXA0qT-9" value="&lt;b style=&quot;font-size: 24px&quot;&gt;Antonio&lt;/b&gt;&lt;br style=&quot;font-size: 24px&quot;&gt;Wants to kill Alonso" style="whiteSpace=wrap;html=1;fontFamily=CMU Sans Serif;fontColor=#4b4b4b;strokeColor=#7e7e7e;rounded=1;verticalAlign=middle;fontSize=24;" parent="1" vertex="1">
          <mxGeometry x="420" y="340" width="240" height="160" as="geometry" />
        </mxCell>
        <mxCell id="ZRe5EipwopZjVvHXA0qT-1" value="&lt;font data-font-src=&quot;https://fontlibrary.org/assets/fonts/cmu-sans-serif/0da0d92e6bacf5e091c1ae85c4da581d/1b24573c1e6cf956df63c20903efe11d/CMUSansSerifMedium.ttf&quot; style=&quot;font-size: 24px&quot;&gt;&lt;b style=&quot;font-size: 24px&quot;&gt;Prospero&lt;/b&gt;&lt;br style=&quot;font-size: 24px&quot;&gt;Owner of the Island&lt;br&gt;Has magical powers&lt;br style=&quot;font-size: 24px&quot;&gt;&lt;/font&gt;" style="whiteSpace=wrap;html=1;fontFamily=CMU Sans Serif;strokeColor=#7e7e7e;fontColor=#4b4b4b;fontSize=24;rounded=1;verticalAlign=middle;" parent="1" vertex="1">
          <mxGeometry x="820" y="340" width="240" height="160" as="geometry" />
        </mxCell>
        <mxCell id="ZRe5EipwopZjVvHXA0qT-7" value="&lt;b style=&quot;font-size: 24px&quot;&gt;Miranda&lt;/b&gt;&lt;br&gt;Arrived on the island at 3, 15 now&lt;br&gt;Never saw her mother" style="whiteSpace=wrap;html=1;fontFamily=CMU Sans Serif;fontColor=#4b4b4b;strokeColor=#7e7e7e;rounded=1;verticalAlign=middle;fontSize=24;" parent="1" vertex="1">
          <mxGeometry x="820" y="660" width="240" height="160" as="geometry" />
        </mxCell>
        <mxCell id="ZRe5EipwopZjVvHXA0qT-8" value="&lt;span style=&quot;color: rgb(75 , 75 , 75) ; font-family: &amp;#34;cmu sans serif&amp;#34; ; font-size: 24px ; font-style: normal ; font-weight: 400 ; letter-spacing: normal ; text-align: center ; text-indent: 0px ; text-transform: none ; word-spacing: 0px ; background-color: rgb(255 , 255 , 255) ; display: inline ; float: none&quot;&gt;Daughter&lt;/span&gt;" style="edgeStyle=orthogonalEdgeStyle;orthogonalLoop=1;jettySize=auto;html=1;shadow=0;startArrow=open;startFill=0;endArrow=none;endFill=0;fontFamily=CMU Sans Serif;fontColor=#4b4b4b;fontSize=24;strokeColor=#7E7E7E;verticalAlign=middle;" parent="1" source="ZRe5EipwopZjVvHXA0qT-1" target="ZRe5EipwopZjVvHXA0qT-7" edge="1">
          <mxGeometry x="420" y="20" as="geometry" />
        </mxCell>
        <mxCell id="ZRe5EipwopZjVvHXA0qT-23" value="&lt;b style=&quot;font-size: 24px&quot;&gt;Caliban&lt;/b&gt;&lt;br style=&quot;font-size: 24px&quot;&gt;Original owner of the island, native" style="whiteSpace=wrap;html=1;fontFamily=CMU Sans Serif;fontColor=#4b4b4b;strokeColor=#7e7e7e;rounded=1;verticalAlign=middle;fontSize=24;" parent="1" vertex="1">
          <mxGeometry x="1220" y="340" width="240" height="160" as="geometry" />
        </mxCell>
        <mxCell id="ZRe5EipwopZjVvHXA0qT-24" value="Slave" style="edgeStyle=orthogonalEdgeStyle;jumpSize=1;orthogonalLoop=1;jettySize=auto;html=1;shadow=0;startArrow=open;startFill=0;endArrow=none;endFill=0;strokeColor=#7E7E7E;strokeWidth=1;fontFamily=CMU Sans Serif;fontSize=24;fontColor=#4b4b4b;verticalAlign=middle;" parent="1" source="ZRe5EipwopZjVvHXA0qT-1" target="ZRe5EipwopZjVvHXA0qT-23" edge="1">
          <mxGeometry x="420" y="60" as="geometry" />
        </mxCell>
        <mxCell id="ZRe5EipwopZjVvHXA0qT-25" value="&lt;b&gt;Sycorax&lt;/b&gt;&lt;br style=&quot;font-size: 24px&quot;&gt;Witch" style="whiteSpace=wrap;html=1;fontFamily=CMU Sans Serif;fontColor=#4b4b4b;strokeColor=#7e7e7e;rounded=1;verticalAlign=middle;fontSize=24;" parent="1" vertex="1">
          <mxGeometry x="1220" y="20" width="240" height="160" as="geometry" />
        </mxCell>
        <mxCell id="ZRe5EipwopZjVvHXA0qT-26" value="Mother" style="edgeStyle=orthogonalEdgeStyle;jumpSize=1;orthogonalLoop=1;jettySize=auto;html=1;shadow=0;startArrow=open;startFill=0;endArrow=none;endFill=0;strokeColor=#7E7E7E;strokeWidth=1;fontFamily=CMU Sans Serif;fontSize=24;fontColor=#4b4b4b;verticalAlign=middle;entryX=0.5;entryY=1;entryDx=0;entryDy=0;exitX=0.5;exitY=0;exitDx=0;exitDy=0;" parent="1" source="ZRe5EipwopZjVvHXA0qT-23" target="ZRe5EipwopZjVvHXA0qT-25" edge="1">
          <mxGeometry x="420" y="20" as="geometry" />
        </mxCell>
        <mxCell id="ZRe5EipwopZjVvHXA0qT-27" value="&lt;b style=&quot;font-size: 24px&quot;&gt;Alonso&lt;/b&gt;&lt;br style=&quot;font-size: 24px&quot;&gt;King" style="whiteSpace=wrap;html=1;fontFamily=CMU Sans Serif;fontColor=#4b4b4b;strokeColor=#7e7e7e;rounded=1;verticalAlign=middle;fontSize=24;" parent="1" vertex="1">
          <mxGeometry x="20" y="340" width="240" height="160" as="geometry" />
        </mxCell>
        <mxCell id="ZRe5EipwopZjVvHXA0qT-28" value="Took power" style="edgeStyle=orthogonalEdgeStyle;jumpSize=1;orthogonalLoop=1;jettySize=auto;html=1;shadow=0;startArrow=none;startFill=0;endArrow=open;endFill=0;strokeColor=#7E7E7E;strokeWidth=1;fontFamily=CMU Sans Serif;fontSize=24;fontColor=#4b4b4b;verticalAlign=middle;exitX=1;exitY=0.25;exitDx=0;exitDy=0;entryX=0;entryY=0.25;entryDx=0;entryDy=0;" parent="1" source="ZRe5EipwopZjVvHXA0qT-9" target="ZRe5EipwopZjVvHXA0qT-1" edge="1">
          <mxGeometry x="420" y="60" as="geometry" />
        </mxCell>
        <mxCell id="ZRe5EipwopZjVvHXA0qT-29" value="&lt;span style=&quot;font-size: 24px&quot;&gt;&lt;b&gt;Ferdinand&lt;/b&gt;&lt;br&gt;Noble&lt;br&gt;Arrives alone on the island&lt;br&gt;&lt;/span&gt;" style="whiteSpace=wrap;html=1;fontFamily=CMU Sans Serif;fontColor=#4b4b4b;strokeColor=#7e7e7e;rounded=1;verticalAlign=middle;fontSize=24;" parent="1" vertex="1">
          <mxGeometry x="420" y="660" width="240" height="160" as="geometry" />
        </mxCell>
        <mxCell id="ZRe5EipwopZjVvHXA0qT-30" value="Son" style="edgeStyle=orthogonalEdgeStyle;jumpSize=1;orthogonalLoop=1;jettySize=auto;html=1;shadow=0;startArrow=open;startFill=0;endArrow=none;endFill=0;strokeColor=#7E7E7E;strokeWidth=1;fontFamily=CMU Sans Serif;fontSize=24;fontColor=#4b4b4b;verticalAlign=middle;exitX=1;exitY=0.75;exitDx=0;exitDy=0;" parent="1" source="ZRe5EipwopZjVvHXA0qT-27" target="ZRe5EipwopZjVvHXA0qT-29" edge="1">
          <mxGeometry x="420" y="20" as="geometry">
            <Array as="points">
              <mxPoint x="340" y="460" />
              <mxPoint x="340" y="740" />
            </Array>
          </mxGeometry>
        </mxCell>
        <mxCell id="lvu-gqE3-65HDV3zig5D-1" value="In love" style="edgeStyle=orthogonalEdgeStyle;jumpSize=1;orthogonalLoop=1;jettySize=auto;html=1;shadow=0;startArrow=open;startFill=0;endArrow=open;endFill=0;strokeColor=#7E7E7E;strokeWidth=1;fontFamily=CMU Sans Serif;fontSize=24;fontColor=#4b4b4b;verticalAlign=middle;entryX=0;entryY=0.5;entryDx=0;entryDy=0;exitX=1;exitY=0.5;exitDx=0;exitDy=0;" parent="1" source="ZRe5EipwopZjVvHXA0qT-29" target="ZRe5EipwopZjVvHXA0qT-7" edge="1">
          <mxGeometry x="-140" y="-40" as="geometry">
            <mxPoint x="780" y="280" as="sourcePoint" />
            <mxPoint x="780" y="120" as="targetPoint" />
          </mxGeometry>
        </mxCell>
        <mxCell id="rc4NRGeTavS-9MdgXsuD-1" value="Exiled" style="edgeStyle=orthogonalEdgeStyle;jumpSize=1;orthogonalLoop=1;jettySize=auto;html=1;shadow=0;startArrow=none;startFill=0;endArrow=open;endFill=0;strokeColor=#7E7E7E;strokeWidth=1;fontFamily=CMU Sans Serif;fontSize=24;fontColor=#4b4b4b;verticalAlign=middle;entryX=0;entryY=0.75;entryDx=0;entryDy=0;exitX=1;exitY=0.25;exitDx=0;exitDy=0;" parent="1" source="ZRe5EipwopZjVvHXA0qT-1" target="ZRe5EipwopZjVvHXA0qT-25" edge="1">
          <mxGeometry x="280" y="130" as="geometry">
            <mxPoint x="1080" y="290" as="sourcePoint" />
            <mxPoint x="1240" y="290" as="targetPoint" />
          </mxGeometry>
        </mxCell>
        <mxCell id="rc4NRGeTavS-9MdgXsuD-2" value="Jester" style="edgeStyle=orthogonalEdgeStyle;jumpSize=1;orthogonalLoop=1;jettySize=auto;html=1;shadow=0;startArrow=open;startFill=0;endArrow=none;endFill=0;strokeColor=#7E7E7E;strokeWidth=1;fontFamily=CMU Sans Serif;fontSize=24;fontColor=#4b4b4b;verticalAlign=middle;entryX=0.5;entryY=1;entryDx=0;entryDy=0;exitX=0.5;exitY=0;exitDx=0;exitDy=0;" parent="1" source="ZRe5EipwopZjVvHXA0qT-27" target="ZRe5EipwopZjVvHXA0qT-12" edge="1">
          <mxGeometry x="-180" y="400" as="geometry">
            <mxPoint x="600" y="650" as="sourcePoint" />
            <mxPoint x="760" y="370" as="targetPoint" />
          </mxGeometry>
        </mxCell>
        <mxCell id="rc4NRGeTavS-9MdgXsuD-3" value="Captured" style="edgeStyle=orthogonalEdgeStyle;jumpSize=1;orthogonalLoop=1;jettySize=auto;html=1;shadow=0;startArrow=open;startFill=0;endArrow=none;endFill=0;strokeColor=#7E7E7E;strokeWidth=1;fontFamily=CMU Sans Serif;fontSize=24;fontColor=#4b4b4b;verticalAlign=middle;entryX=0;entryY=0.5;entryDx=0;entryDy=0;exitX=1;exitY=0.5;exitDx=0;exitDy=0;" parent="1" source="ZRe5EipwopZjVvHXA0qT-31" target="ZRe5EipwopZjVvHXA0qT-25" edge="1">
          <mxGeometry x="290" y="140" as="geometry">
            <mxPoint x="1070" y="390" as="sourcePoint" />
            <mxPoint x="1230" y="150" as="targetPoint" />
          </mxGeometry>
        </mxCell>
        <mxCell id="rc4NRGeTavS-9MdgXsuD-4" value="Controls" style="edgeStyle=orthogonalEdgeStyle;jumpSize=1;orthogonalLoop=1;jettySize=auto;html=1;shadow=0;startArrow=open;startFill=0;endArrow=none;endFill=0;strokeColor=#7E7E7E;strokeWidth=1;fontFamily=CMU Sans Serif;fontSize=24;fontColor=#4b4b4b;verticalAlign=middle;entryX=0.5;entryY=0;entryDx=0;entryDy=0;exitX=0.5;exitY=1;exitDx=0;exitDy=0;" parent="1" source="ZRe5EipwopZjVvHXA0qT-31" target="ZRe5EipwopZjVvHXA0qT-1" edge="1">
          <mxGeometry x="300" y="150" as="geometry">
            <mxPoint x="1070" y="110" as="sourcePoint" />
            <mxPoint x="1230" y="110" as="targetPoint" />
          </mxGeometry>
        </mxCell>
        <mxCell id="rc4NRGeTavS-9MdgXsuD-5" value="Brother" style="endArrow=open;startArrow=open;html=1;shadow=0;strokeColor=#7E7E7E;strokeWidth=1;fontFamily=CMU Sans Serif;fontSize=24;fontColor=#4b4b4b;entryX=1;entryY=0.25;entryDx=0;entryDy=0;exitX=0;exitY=0.5;exitDx=0;exitDy=0;startFill=0;endFill=0;edgeStyle=orthogonalEdgeStyle;spacingLeft=0;spacingBottom=0;spacingRight=0;verticalAlign=middle;" parent="1" source="rc4NRGeTavS-9MdgXsuD-6" target="ZRe5EipwopZjVvHXA0qT-27" edge="1">
          <mxGeometry width="50" height="50" relative="1" as="geometry">
            <mxPoint x="270" y="230" as="sourcePoint" />
            <mxPoint x="480" y="340" as="targetPoint" />
          </mxGeometry>
        </mxCell>
        <mxCell id="rc4NRGeTavS-9MdgXsuD-6" value="&lt;b style=&quot;font-size: 24px&quot;&gt;Sebastian&lt;/b&gt;&lt;br style=&quot;font-size: 24px&quot;&gt;Wants to kill Alonso" style="whiteSpace=wrap;html=1;fontFamily=CMU Sans Serif;fontColor=#4b4b4b;strokeColor=#7e7e7e;rounded=1;verticalAlign=middle;fontSize=24;" parent="1" vertex="1">
          <mxGeometry x="420" y="20" width="240" height="160" as="geometry" />
        </mxCell>
        <mxCell id="rc4NRGeTavS-9MdgXsuD-7" value="&lt;b&gt;Gonzalo&lt;/b&gt;&lt;br style=&quot;font-size: 24px&quot;&gt;Gives his books to Prospero wen he is exiled from Naples" style="whiteSpace=wrap;html=1;fontFamily=CMU Sans Serif;fontColor=#4b4b4b;strokeColor=#7e7e7e;rounded=1;verticalAlign=middle;fontSize=24;" parent="1" vertex="1">
          <mxGeometry x="1220" y="660" width="240" height="160" as="geometry" />
        </mxCell>
        <mxCell id="rc4NRGeTavS-9MdgXsuD-8" value="Helps escape" style="edgeStyle=orthogonalEdgeStyle;jumpSize=1;orthogonalLoop=1;jettySize=auto;html=1;shadow=0;startArrow=open;startFill=0;endArrow=none;endFill=0;strokeColor=#7E7E7E;strokeWidth=1;fontFamily=CMU Sans Serif;fontSize=24;fontColor=#4b4b4b;verticalAlign=middle;entryX=0.5;entryY=0;entryDx=0;entryDy=0;exitX=0.75;exitY=1;exitDx=0;exitDy=0;" parent="1" source="ZRe5EipwopZjVvHXA0qT-1" target="rc4NRGeTavS-9MdgXsuD-7" edge="1">
          <mxGeometry x="290" y="770" as="geometry">
            <mxPoint x="1060" y="730" as="sourcePoint" />
            <mxPoint x="1230" y="780" as="targetPoint" />
          </mxGeometry>
        </mxCell>
        <mxCell id="rc4NRGeTavS-9MdgXsuD-9" value="Same goal" style="endArrow=open;startArrow=open;html=1;shadow=0;strokeColor=#7E7E7E;strokeWidth=1;fontFamily=CMU Sans Serif;fontSize=24;fontColor=#4b4b4b;entryX=0.5;entryY=0;entryDx=0;entryDy=0;exitX=0.5;exitY=1;exitDx=0;exitDy=0;startFill=0;endFill=0;edgeStyle=orthogonalEdgeStyle;spacingLeft=0;spacingBottom=0;spacingRight=0;verticalAlign=middle;" parent="1" source="rc4NRGeTavS-9MdgXsuD-6" target="ZRe5EipwopZjVvHXA0qT-9" edge="1">
          <mxGeometry width="50" height="50" relative="1" as="geometry">
            <mxPoint x="430" y="110" as="sourcePoint" />
            <mxPoint x="270" y="709.9999999999998" as="targetPoint" />
          </mxGeometry>
        </mxCell>
        <mxCell id="rc4NRGeTavS-9MdgXsuD-11" value="Gives power temporarily" style="edgeStyle=orthogonalEdgeStyle;jumpSize=1;orthogonalLoop=1;jettySize=auto;html=1;shadow=0;startArrow=open;startFill=0;endArrow=none;endFill=0;strokeColor=#7E7E7E;strokeWidth=1;fontFamily=CMU Sans Serif;fontSize=24;fontColor=#4b4b4b;verticalAlign=middle;entryX=0.25;entryY=0;entryDx=0;entryDy=0;exitX=0.75;exitY=0;exitDx=0;exitDy=0;" parent="1" source="ZRe5EipwopZjVvHXA0qT-9" target="ZRe5EipwopZjVvHXA0qT-1" edge="1">
          <mxGeometry as="geometry">
            <mxPoint x="949.9999999999995" y="190" as="sourcePoint" />
            <mxPoint x="949.9999999999995" y="349.9999999999998" as="targetPoint" />
            <mxPoint y="-20" as="offset" />
          </mxGeometry>
        </mxCell>
        <mxCell id="oN5E6gyN4gGIi_4IY7Lt-2" value="&lt;b style=&quot;font-size: 24px&quot;&gt;Stephano&lt;/b&gt;" style="whiteSpace=wrap;html=1;fontFamily=CMU Sans Serif;fontColor=#4b4b4b;strokeColor=#7e7e7e;rounded=1;verticalAlign=middle;fontSize=24;" parent="1" vertex="1">
          <mxGeometry x="20" y="660" width="240" height="160" as="geometry" />
        </mxCell>
        <mxCell id="oN5E6gyN4gGIi_4IY7Lt-3" value="Butler" style="edgeStyle=orthogonalEdgeStyle;jumpSize=1;orthogonalLoop=1;jettySize=auto;html=1;shadow=0;startArrow=open;startFill=0;endArrow=none;endFill=0;strokeColor=#7E7E7E;strokeWidth=1;fontFamily=CMU Sans Serif;fontSize=24;fontColor=#4b4b4b;verticalAlign=middle;exitX=0.5;exitY=1;exitDx=0;exitDy=0;entryX=0.5;entryY=0;entryDx=0;entryDy=0;" parent="1" source="ZRe5EipwopZjVvHXA0qT-27" target="oN5E6gyN4gGIi_4IY7Lt-2" edge="1">
          <mxGeometry x="-170" y="410" as="geometry">
            <mxPoint x="150" y="350" as="sourcePoint" />
            <mxPoint x="180" y="650" as="targetPoint" />
          </mxGeometry>
        </mxCell>
      </root>
    </mxGraphModel>
  </diagram>
</mxfile>
